<?xml version="1.0" encoding="UTF-8"?>
<svg xmlns="http://www.w3.org/2000/svg" version="1.1" viewBox="0 0 311.4 150">
  <defs>
    <style>
      .cls-1 {
        font-family: ProximaNovaA-Light, 'Proxima Nova Alt';
        font-size: 25.4px;
        font-weight: 300;
      }

      .cls-2 {
        fill: #976f33;
      }

      .cls-3 {
        fill: #453c36;
      }
    </style>
  </defs>
  <!-- Generator: Adobe Illustrator 28.7.1, SVG Export Plug-In . SVG Version: 1.2.0 Build 142)  -->
  <g>
    <g id="Layer_1">
      <g>
        <g>
          <rect class="cls-2" x="126.4" y="84.9" width="18.3" height="8.3" transform="translate(102.7 -69.8) rotate(45)"/>
          <circle class="cls-2" cx="124.6" cy="78.4" r="4.4"/>
          <g>
            <path class="cls-2" d="M111.5,107.9l-3-3-5.8,5.8,3,3c5.1,5.1,5.1,13.4,0,18.5-5.1,5.1-13.4,5.1-18.5,0-5.1-5.1-5.1-13.4,0-18.5l-5.8-5.8c-8.3,8.3-8.3,21.8,0,30.1,8.3,8.3,21.8,8.3,30.1,0,8.3-8.3,8.3-21.8,0-30.1Z"/>
            <polygon class="cls-2" points="123.2 86 117.3 80.2 94.8 102.6 94.8 102.7 94.8 102.7 100.6 108.5 106.4 102.8 106.4 102.8 123.2 86"/>
          </g>
          <rect class="cls-2" x="1.5" y="54" width="18.3" height="8.3" transform="translate(-22.9 106.9) rotate(-135)"/>
          <circle class="cls-2" cx="21.7" cy="68.7" r="4.4"/>
          <g>
            <path class="cls-2" d="M34.7,39.3l3,3,5.8-5.8-3-3c-5.1-5.1-5.1-13.4,0-18.5,5.1-5.1,13.4-5.1,18.5,0,5.1,5.1,5.1,13.4,0,18.5l5.8,5.8c8.3-8.3,8.3-21.8,0-30.1-8.3-8.3-21.8-8.3-30.1,0s-8.3,21.8,0,30.1Z"/>
            <polygon class="cls-2" points="51.5 44.5 45.6 38.7 39.9 44.4 23.1 61.2 29 67 51.5 44.5 51.5 44.5 51.5 44.5"/>
          </g>
          <rect class="cls-2" x="79.4" y="7" width="18.3" height="8.3" transform="translate(18.1 65.9) rotate(-45)"/>
          <circle class="cls-2" cx="78" cy="22.1" r="4.4"/>
          <g>
            <path class="cls-2" d="M107.4,35.2l-3,3,5.8,5.8,3-3c5.1-5.1,13.4-5.1,18.5,0,5.1,5.1,5.1,13.4,0,18.5s-13.4,5.1-18.5,0l-5.8,5.8c8.3,8.3,21.8,8.3,30.1,0,8.3-8.3,8.3-21.8,0-30.1-8.3-8.3-21.8-8.3-30.1,0Z"/>
            <polygon class="cls-2" points="108.1 46.1 102.3 40.3 102.3 40.3 85.6 23.6 79.7 29.5 102.2 52 102.2 52 102.2 52 108.1 46.1"/>
          </g>
          <rect class="cls-2" x="48.6" y="131.9" width="18.3" height="8.3" transform="translate(194.7 191.4) rotate(135)"/>
          <circle class="cls-2" cx="68.3" cy="125" r="4.4"/>
          <g>
            <path class="cls-2" d="M38.9,112l3-3-5.8-5.8-3,3c-5.1,5.1-13.4,5.1-18.5,0s-5.1-13.4,0-18.5,13.4-5.1,18.5,0l5.8-5.8c-8.3-8.3-21.8-8.3-30.1,0-8.3,8.3-8.3,21.8,0,30.1s21.8,8.3,30.1,0Z"/>
            <polygon class="cls-2" points="44.1 95.2 44.1 95.2 44.1 95.2 38.2 101.1 44 106.9 60.7 123.6 66.6 117.7 44.1 95.2"/>
          </g>
          <g>
            <path class="cls-2" d="M79.5,65.6c1.1,1.1,1.8,2.3,2.2,3.7l17.1-17.1-5.9-5.9-17.1,17.1c1.3.4,2.6,1.1,3.7,2.2Z"/>
            <path class="cls-2" d="M66.8,78.3c-1.1-1.1-1.8-2.3-2.2-3.7l-18.3,18.3,5.9,5.9,18.3-18.3c-1.3-.4-2.6-1.1-3.7-2.2Z"/>
          </g>
          <g>
            <path class="cls-2" d="M66.8,65.6c1.1-1.1,2.3-1.8,3.7-2.2l-16.7-16.7-5.9,5.9,16.7,16.7c.4-1.3,1.1-2.6,2.2-3.7Z"/>
            <path class="cls-2" d="M81.7,74.6c-.4,1.3-1.1,2.6-2.2,3.7-1.1,1.1-2.3,1.8-3.7,2.2l18.7,18.7,5.9-5.9-18.7-18.7Z"/>
          </g>
        </g>
        <g>
          <text class="cls-1" transform="translate(166 144.6)"><tspan x="0" y="0">PROPERTIES</tspan></text>
          <g>
            <rect class="cls-2" x="168.9" y="23.5" width="5.7" height="41.5"/>
            <rect class="cls-2" x="198.1" y="23.5" width="5.7" height="41.5"/>
            <rect class="cls-2" x="212.3" y="23.5" width="5.7" height="41.5"/>
            <rect class="cls-2" x="260.6" y="43.4" width="5.2" height="21.6"/>
            <rect class="cls-2" x="250.2" y="33.1" width="5.2" height="25.8" transform="translate(298.8 -206.9) rotate(90)"/>
            <rect class="cls-2" x="183.5" y="27.2" width="5.7" height="34" transform="translate(230.6 -142.1) rotate(90)"/>
            <rect class="cls-2" x="272.8" y="23.5" width="5.7" height="41.5"/>
            <rect class="cls-2" x="302" y="23.5" width="5.7" height="41.5"/>
            <rect class="cls-2" x="287.4" y="27.2" width="5.7" height="34" transform="translate(334.5 -246.1) rotate(90)"/>
            <path class="cls-2" d="M259.8,46.9c-1.1,7.6-7,13.4-14.8,13.4s-14.5-7.2-14.5-16,6.5-16,14.5-16,13.3,4.6,14.5,11l5.3-1.9c-2.1-8.3-8.5-14.3-19.4-14.3s-20.3,9.5-20.3,21.2,8.8,21.2,20.3,21.2,17.1-7.8,17.4-18.7h-3.1Z"/>
          </g>
          <rect class="cls-3" x="168.9" y="70.7" width="5.7" height="41.5"/>
          <rect class="cls-3" x="212.3" y="70.7" width="5.7" height="41.5"/>
          <polygon class="cls-3" points="247 112.2 241.3 112.2 224.3 70.7 230.1 70.7 247 112.2"/>
          <polygon class="cls-3" points="244.9 112.2 250.7 112.2 267.6 70.7 261.9 70.7 244.9 112.2"/>
          <rect class="cls-3" x="183.7" y="56.4" width="5.7" height="34.5" transform="translate(260.2 -113) rotate(90)"/>
          <rect class="cls-3" x="183.7" y="74.5" width="5.7" height="34.5" transform="translate(278.4 -94.8) rotate(90)"/>
          <rect class="cls-3" x="273.3" y="70.7" width="5.7" height="41.5"/>
          <rect class="cls-3" x="287.9" y="56.6" width="5.7" height="34" transform="translate(364.3 -217.2) rotate(90)"/>
          <rect class="cls-3" x="287.9" y="92.4" width="5.7" height="34" transform="translate(400.1 -181.4) rotate(90)"/>
          <rect class="cls-3" x="287.9" y="74.8" width="5.7" height="34" transform="translate(382.5 -199) rotate(90)"/>
        </g>
      </g>
    </g>
  </g>
</svg>