<?xml version="1.0" encoding="UTF-8"?>
<svg id="Layer_1" xmlns="http://www.w3.org/2000/svg" version="1.1" viewBox="0 0 600 286.2">
  <!-- Generator: Adobe Illustrator 29.0.0, SVG Export Plug-In . SVG Version: 2.1.0 Build 186)  -->
  <defs>
    <style>
      .st0 {
        fill: #fff;
      }

      .st1, .st2 {
        fill: #976f33;
      }

      .st2 {
        font-family: ProximaNovaA-Light, 'Proxima Nova Alt';
        font-size: 49.1px;
        font-weight: 300;
      }
    </style>
  </defs>
  <g>
    <rect class="st1" x="245.5" y="166" width="35.5" height="16.1" transform="translate(200.2 -135.2) rotate(45)"/>
    <circle class="st1" cx="241.9" cy="153.5" r="8.6"/>
    <g>
      <path class="st1" d="M216.6,210.5l-5.8-5.8-11.2,11.2,5.8,5.8c9.9,9.9,9.9,26,0,35.9-9.9,9.9-26,9.9-35.9,0-9.9-9.9-9.9-26,0-35.9l-11.2-11.2c-16.1,16.1-16.1,42.2,0,58.3,16.1,16.1,42.2,16.1,58.3,0,16.1-16.1,16.1-42.2,0-58.3Z"/>
      <polygon class="st1" points="239.1 168.2 227.7 156.8 184.2 200.4 184.2 200.4 184.2 200.4 195.5 211.8 206.7 200.6 206.7 200.6 239.1 168.2"/>
    </g>
    <rect class="st1" x="3.5" y="106.2" width="35.5" height="16.1" transform="translate(-44.5 210.1) rotate(-135)"/>
    <circle class="st1" cx="42.6" cy="134.7" r="8.6"/>
    <g>
      <path class="st1" d="M67.9,77.8l5.8,5.8,11.2-11.2-5.8-5.8c-9.9-9.9-9.9-26,0-35.9,9.9-9.9,26-9.9,35.9,0,9.9,9.9,9.9,26,0,35.9l11.2,11.2c16.1-16.1,16.1-42.2,0-58.3-16.1-16.1-42.2-16.1-58.3,0-16.1,16.1-16.1,42.2,0,58.3Z"/>
      <polygon class="st1" points="100.3 87.8 89 76.4 77.8 87.7 45.4 120 56.8 131.4 100.3 87.9 100.3 87.8 100.3 87.8"/>
    </g>
    <rect class="st1" x="154.4" y="15.1" width="35.5" height="16.1" transform="translate(34.1 128.5) rotate(-45)"/>
    <circle class="st1" cx="151.7" cy="44.5" r="8.6"/>
    <g>
      <path class="st1" d="M208.6,69.7l-5.8,5.8,11.2,11.2,5.8-5.8c9.9-9.9,26-9.9,35.9,0,9.9,9.9,9.9,26,0,35.9-9.9,9.9-26,9.9-35.9,0l-11.2,11.2c16.1,16.1,42.2,16.1,58.3,0,16.1-16.1,16.1-42.2,0-58.3-16.1-16.1-42.2-16.1-58.3,0Z"/>
      <polygon class="st1" points="209.9 90.9 198.7 79.7 198.7 79.7 166.4 47.3 155 58.7 198.5 102.2 198.5 102.2 198.6 102.2 209.9 90.9"/>
    </g>
    <rect class="st1" x="94.6" y="257.1" width="35.5" height="16.1" transform="translate(379.3 373.2) rotate(135)"/>
    <circle class="st1" cx="132.9" cy="243.8" r="8.6"/>
    <g>
      <path class="st1" d="M75.9,218.5l5.8-5.8-11.2-11.2-5.8,5.8c-9.9,9.9-26,9.9-35.9,0-9.9-9.9-9.9-26,0-35.9,9.9-9.9,26-9.9,35.9,0l11.2-11.2c-16.1-16.1-42.2-16.1-58.3,0-16.1,16.1-16.1,42.2,0,58.3,16.1,16.1,42.2,16.1,58.3,0Z"/>
      <polygon class="st1" points="86 186 86 186.1 85.9 186 74.6 197.4 85.8 208.6 118.2 241 129.5 229.6 86 186"/>
    </g>
    <g>
      <path class="st1" d="M154.6,128.6c2.1,2.1,3.4,4.5,4.2,7.2l33.1-33.1-11.4-11.4-33.1,33.1c2.6.8,5.1,2.2,7.2,4.2Z"/>
      <path class="st1" d="M129.9,153.3c-2.1-2.1-3.4-4.5-4.2-7.2l-35.5,35.5,11.4,11.4,35.5-35.5c-2.6-.8-5.1-2.2-7.2-4.2Z"/>
    </g>
    <g>
      <path class="st1" d="M129.9,128.6c2.1-2.1,4.5-3.4,7.2-4.2l-32.3-32.3-11.4,11.4,32.3,32.3c.8-2.6,2.2-5.1,4.2-7.2Z"/>
      <path class="st1" d="M158.8,146.1c-.8,2.6-2.2,5.1-4.2,7.2-2.1,2.1-4.5,3.4-7.2,4.2l36.3,36.3,11.4-11.4-36.3-36.3Z"/>
    </g>
  </g>
  <text class="st2" transform="translate(322.1 281.7)"><tspan x="0" y="0">PROPERTIES</tspan></text>
  <g>
    <rect class="st1" x="327.7" y="47" width="11.1" height="80.4"/>
    <rect class="st1" x="384.3" y="47" width="11.1" height="80.4"/>
    <rect class="st1" x="411.8" y="47" width="11.1" height="80.4"/>
    <rect class="st1" x="505.3" y="85.6" width="10" height="41.8"/>
    <rect class="st1" x="485.3" y="65.6" width="10" height="50" transform="translate(580.9 -399.7) rotate(90)"/>
    <rect class="st1" x="356" y="54.2" width="11.1" height="65.9" transform="translate(448.8 -274.4) rotate(90)"/>
    <rect class="st1" x="529.1" y="47" width="11.1" height="80.4"/>
    <rect class="st1" x="585.7" y="47" width="11.1" height="80.4"/>
    <rect class="st1" x="557.4" y="54.2" width="11.1" height="65.9" transform="translate(650.2 -475.7) rotate(90)"/>
    <path class="st1" d="M503.8,92.4c-2.1,14.8-13.5,26-28.6,26s-28.1-13.9-28.1-31,12.6-31,28.1-31,25.7,9,28.1,21.4l10.3-3.7c-4.2-16.1-16.4-27.7-37.7-27.7s-39.4,18.4-39.4,41,17.1,41,39.4,41,33.2-15.2,33.7-36.2h-5.9Z"/>
  </g>
  <rect class="st0" x="327.7" y="138.6" width="11.1" height="80.4"/>
  <rect class="st0" x="411.8" y="138.6" width="11.1" height="80.4"/>
  <polygon class="st0" points="479.1 219 467.9 219 435.1 138.6 446.2 138.6 479.1 219"/>
  <polygon class="st0" points="475.1 219 486.2 219 519 138.6 507.9 138.6 475.1 219"/>
  <rect class="st0" x="356.5" y="110.7" width="11.1" height="66.8" transform="translate(506.2 -217.9) rotate(90)"/>
  <rect class="st0" x="356.5" y="146" width="11.1" height="66.8" transform="translate(541.4 -182.6) rotate(90)"/>
  <rect class="st0" x="530" y="138.6" width="11.1" height="80.4"/>
  <rect class="st0" x="558.3" y="111.2" width="11.1" height="65.9" transform="translate(708 -419.7) rotate(90)"/>
  <rect class="st0" x="558.3" y="180.5" width="11.1" height="65.9" transform="translate(777.3 -350.4) rotate(90)"/>
  <rect class="st0" x="558.3" y="146.4" width="11.1" height="65.9" transform="translate(743.2 -384.5) rotate(90)"/>
</svg>